<?xml version="1.0" encoding="UTF-8"?>
<svg version="1.1" xmlns="http://www.w3.org/2000/svg" width="192" height="192">
<path d="M0 0 C63.36 0 126.72 0 192 0 C192 63.36 192 126.72 192 192 C128.64 192 65.28 192 0 192 C0 128.64 0 65.28 0 0 Z " fill="#FBF4E9" transform="translate(0,0)"/>
<path d="M0 0 C2.91771408 1.30794079 5.00379272 2.48488472 7 5 C7.65848458 7.27121376 8.2328835 9.56748956 8.75 11.875 C10.25075044 17.89164779 10.25075044 17.89164779 14.5 22.0625 C15.66403549 22.71306373 16.83047761 23.35935253 18 24 C22.23127188 28.11691318 23.06661065 32.36281956 24 38 C23.01 38 22.02 38 21 38 C21.804375 38.515625 22.60875 39.03125 23.4375 39.5625 C26 42 26 42 26.9375 45.5 C26.99703118 48.83374606 26.83849947 50.29632431 25 53 C25.680625 52.505 26.36125 52.01 27.0625 51.5 C30.76618806 49.60875503 32.88392445 49.42230519 37 50 C39.78153225 51.37246657 40.86492728 52.55247761 43 55 C43.84695311 60.17582454 42.76326353 63.59924697 40 68 C39.01 68.66 38.02 69.32 37 70 C36.6596875 69.54109375 36.319375 69.0821875 35.96875 68.609375 C31.51616396 62.97259055 27.37340541 59.69467075 20.171875 58.55078125 C12.42476867 58.10383281 6.84355454 59.84511393 1 65 C-1.0118504 67.49067852 -2.76023656 69.99978393 -4.4296875 72.73046875 C-6.07878963 75.11387257 -7.53672977 76.49088188 -10 78 C-12.75 78.1875 -12.75 78.1875 -15 78 C-15.66 76.68 -16.32 75.36 -17 74 C-19.475 74.495 -19.475 74.495 -22 75 C-22.33 74.34 -22.66 73.68 -23 73 C-24.11375 73.185625 -25.2275 73.37125 -26.375 73.5625 C-30 74 -30 74 -32 73 C-32.625 70.9375 -32.625 70.9375 -33 69 C-28.12315271 66.04433498 -28.12315271 66.04433498 -26.14453125 65.33203125 C-23.94609896 64.43905978 -22.61183474 63.76156802 -21 62 C-20.4504236 58.92935093 -20.37287072 55.97945795 -20.29296875 52.86328125 C-20 50 -20 50 -17.6875 46.75 C-15 45 -15 45 -11 45 C-10.96261719 44.34773438 -10.92523438 43.69546875 -10.88671875 43.0234375 C-10.48506238 37.68377043 -9.83238391 33.6795908 -7 29 C-8.98 29.99 -8.98 29.99 -11 31 C-14.98095238 25.93333333 -14.98095238 25.93333333 -15.0625 21.9375 C-13.7136291 18.2082687 -11.95930851 16.63764454 -9 14 C-3.93867436 9.90029231 -3.93867436 9.90029231 -1.6875 4.1875 C-1.790625 3.465625 -1.89375 2.74375 -2 2 C-1.34 1.34 -0.68 0.68 0 0 Z " fill="#AF2022" transform="translate(94,10)"/>
<path d="M0 0 C4.63590245 3.35972706 8.68804939 7.31805442 10.5234375 12.82421875 C10.64248625 14.84251036 10.69865462 16.86495646 10.7109375 18.88671875 C10.72511719 19.95019531 10.73929687 21.01367188 10.75390625 22.109375 C10.5234375 24.82421875 10.5234375 24.82421875 8.5234375 26.82421875 C7.8634375 26.49421875 7.2034375 26.16421875 6.5234375 25.82421875 C6.71873047 24.62925781 6.71873047 24.62925781 6.91796875 23.41015625 C7.87394115 17.50702111 7.87394115 17.50702111 6.6171875 11.83203125 C5.17630437 10.06538675 5.17630437 10.06538675 2.5234375 7.82421875 C1.9046875 7.06109375 1.2859375 6.29796875 0.6484375 5.51171875 C-2.34383636 3.13550128 -4.70204122 2.89284641 -8.4765625 2.82421875 C-10.05989583 4.24088542 -10.05989583 4.24088542 -11.4765625 5.82421875 C-14.6640625 6.01171875 -14.6640625 6.01171875 -17.4765625 5.82421875 C-19.49699362 9.86508098 -19.73541663 12.46664676 -18.4765625 16.82421875 C-17.4865625 17.48421875 -16.4965625 18.14421875 -15.4765625 18.82421875 C-16.4665625 19.31921875 -16.4665625 19.31921875 -17.4765625 19.82421875 C-18.66750052 23.84856282 -18.66750052 23.84856282 -17.4765625 27.69921875 C-14.35547523 29.45483034 -11.97702536 29.26177661 -8.4765625 28.82421875 C-6.49416723 26.96296952 -6.49416723 26.96296952 -5.4765625 24.82421875 C-5.569375 26.21640625 -5.569375 26.21640625 -5.6640625 27.63671875 C-5.78550514 30.80816978 -5.78550514 30.80816978 -3.9765625 32.69921875 C-3.4815625 33.07046875 -2.9865625 33.44171875 -2.4765625 33.82421875 C-1.4865625 33.49421875 -0.4965625 33.16421875 0.5234375 32.82421875 C1.5134375 32.82421875 2.5034375 32.82421875 3.5234375 32.82421875 C3.5234375 33.48421875 3.5234375 34.14421875 3.5234375 34.82421875 C1.45775823 36.64261963 -0.61101065 38.33700766 -2.7890625 40.01171875 C-3.42118652 40.502771 -4.05331055 40.99382324 -4.70458984 41.49975586 C-10.07715319 45.62214684 -15.61856165 49.41863521 -21.4765625 52.82421875 C-22.43175781 53.44103516 -22.43175781 53.44103516 -23.40625 54.0703125 C-26.48231729 55.1904653 -28.33001426 54.69210022 -31.4765625 53.82421875 C-34.06829978 52.60008506 -36.48318147 51.15182955 -38.9140625 49.63671875 C-39.57349854 49.23396729 -40.23293457 48.83121582 -40.91235352 48.41625977 C-45.47852467 45.57789021 -49.57251951 42.53782062 -53.4765625 38.82421875 C-53.1465625 38.16421875 -52.8165625 37.50421875 -52.4765625 36.82421875 C-48.81518705 37.38295719 -46.3321232 38.30678094 -43.26171875 40.36328125 C-42.49279297 40.86085937 -41.72386719 41.3584375 -40.93164062 41.87109375 C-39.3357033 42.92376098 -37.74453019 43.98368675 -36.15820312 45.05078125 C-31.59875636 48.02706475 -31.59875636 48.02706475 -26.3359375 48.90625 C-22.85884488 47.59046495 -19.77632755 45.89176978 -16.6640625 43.88671875 C-16.07947266 43.52642578 -15.49488281 43.16613281 -14.89257812 42.79492188 C-11.64090341 40.83865345 -11.64090341 40.83865345 -9.4765625 37.82421875 C-10.4665625 37.94796875 -11.4565625 38.07171875 -12.4765625 38.19921875 C-17.66035036 38.18870397 -20.88900392 35.30282762 -24.4765625 31.82421875 C-29.01409069 26.37918493 -29.20392436 21.20818457 -28.98828125 14.2109375 C-27.98101698 7.54453965 -24.44734107 4.43301759 -19.4140625 0.32421875 C-13.61800837 -2.53516796 -5.82181349 -2.76398401 0 0 Z " fill="#122739" transform="translate(120.4765625,72.17578125)"/>
<path d="M0 0 C0.33 0 0.66 0 1 0 C1.33 3.63 1.66 7.26 2 11 C2.99 11 3.98 11 5 11 C5 12.65 5 14.3 5 16 C7.31 16 9.62 16 12 16 C12 18.31 12 20.62 12 23 C13.65 23 15.3 23 17 23 C17.33 21.35 17.66 19.7 18 18 C21.3 17.67 24.6 17.34 28 17 C28 17.66 28 18.32 28 19 C27.05125 19.268125 26.1025 19.53625 25.125 19.8125 C21.74732727 20.74986588 21.74732727 20.74986588 20 24 C19.90524156 25.95648317 19.87011529 27.91622955 19.875 29.875 C19.51865854 35.44199495 19.51865854 35.44199495 17.30078125 37.828125 C15.23962553 39.09301169 13.23423186 40.07977835 11 41 C9.66345061 41.66019538 8.32912559 42.32498341 7 43 C7.33 43.66 7.66 44.32 8 45 C7.67 45.66 7.34 46.32 7 47 C7.60328125 46.90460938 8.2065625 46.80921875 8.828125 46.7109375 C9.62734375 46.60007813 10.4265625 46.48921875 11.25 46.375 C12.03890625 46.25898437 12.8278125 46.14296875 13.640625 46.0234375 C16.34167893 45.99660584 17.67489308 46.69833758 20 48 C20.66 48 21.32 48 22 48 C22.45375 48.61875 22.9075 49.2375 23.375 49.875 C25.10279389 52.13442278 26.40813228 52.92750301 29 54 C29 54.66 29 55.32 29 56 C24.71 55.67 20.42 55.34 16 55 C16 55.99 16 56.98 16 58 C15.01 58 14.02 58 13 58 C13.0825 58.763125 13.165 59.52625 13.25 60.3125 C13 63 13 63 11 64.8125 C10.01 65.4003125 10.01 65.4003125 9 66 C5.57917236 63.71944824 5.32228347 62.74533032 4 59 C3.64969727 58.25395508 3.29939453 57.50791016 2.93847656 56.73925781 C-1.54488862 45.88809342 -0.43266705 34.2700869 -0.25 22.75 C-0.22990371 20.54038078 -0.21165848 18.3307439 -0.1953125 16.12109375 C-0.15156717 10.74700609 -0.08490387 5.37358681 0 0 Z " fill="#F9F0E5" transform="translate(55,36)"/>
<path d="M0 0 C4.43636918 0.08370508 6.49019398 0.57696947 9.9375 3.4375 C12 6 12 6 12 8 C12.639375 8.28875 13.27875 8.5775 13.9375 8.875 C16 10 16 10 17 12 C17.30442659 16.46492339 16.5883272 19.8306411 15 24 C15.66 24 16.32 24 17 24 C16.67522284 27.00418869 16.42029035 28.57970965 14.25 30.75 C11.7805547 32.12191405 9.78282197 32.5825767 7 33 C5.66457061 33.32483418 4.33038449 33.6550855 3 34 C3.33 33.01 3.66 32.02 4 31 C3.34 30.34 2.68 29.68 2 29 C2 27.68 2 26.36 2 25 C1.34 25.99 0.68 26.98 0 28 C-3.93587537 28.51020607 -6.13406947 28.56285485 -9.5 26.375 C-11 24 -11 24 -10.75 20.875 C-10.37875 19.451875 -10.37875 19.451875 -10 18 C-9.81509993 15.67642489 -9.81509993 15.67642489 -12 13 C-11.84935998 9.45995948 -11.39910286 7.52738592 -9.25 4.6875 C-6.75289121 2.81466841 -5.04066726 2.48010536 -2 2 C-1.34 1.34 -0.68 0.68 0 0 Z " fill="#1B2F3F" transform="translate(112,74)"/>
<path d="M0 0 C2.79799985 1.09921423 4.03550018 2.04466152 5.9375 4.4375 C9.15510041 8.43512476 11.76695029 9.77764677 16.8125 10.6875 C17.864375 10.790625 18.91625 10.89375 20 11 C18.67701199 14.96896402 16.22729074 16.06934869 12.8125 18.125 C12.24724609 18.48464844 11.68199219 18.84429687 11.09960938 19.21484375 C7.40382326 21.47549642 4.35893801 23.00558838 0 23 C-2.73203696 21.91595866 -5.10713456 20.41575266 -7.5625 18.8125 C-8.53219727 18.21211914 -8.53219727 18.21211914 -9.52148438 17.59960938 C-13.19865368 15.29155906 -16.76030104 12.90391442 -20 10 C-20 9.34 -20 8.68 -20 8 C-21.65 8 -23.3 8 -25 8 C-25 7.67 -25 7.34 -25 7 C-24.07767578 7.10828125 -24.07767578 7.10828125 -23.13671875 7.21875 C-22.32847656 7.3115625 -21.52023438 7.404375 -20.6875 7.5 C-19.48673828 7.63921875 -19.48673828 7.63921875 -18.26171875 7.78125 C-15.88103445 8.04813463 -15.88103445 8.04813463 -13 8 C-12.62875 6.824375 -12.62875 6.824375 -12.25 5.625 C-11 3 -11 3 -9.125 1.625 C-6.61077333 0.88552157 -5.44427946 1.13267503 -3 2 C-2.01 2.33 -1.02 2.66 0 3 C0 2.01 0 1.02 0 0 Z " fill="#F8F1E6" transform="translate(91,99)"/>
<path d="M0 0 C-0.67578125 2.39453125 -0.67578125 2.39453125 -2 5 C-4.35546875 6.07421875 -4.35546875 6.07421875 -7.1875 6.6875 C-8.57001953 7.00267578 -8.57001953 7.00267578 -9.98046875 7.32421875 C-11.47513672 7.65873047 -11.47513672 7.65873047 -13 8 C-15.33527721 8.65982516 -17.66885183 9.32573219 -20 10 C-20.10228521 16.47365664 -20.17183275 22.94710128 -20.21972656 29.42138672 C-20.23971418 31.61905708 -20.26691362 33.81667514 -20.30175781 36.01416016 C-20.75633336 52.95505171 -20.75633336 52.95505171 -16 69 C-15.32723284 70.6642135 -14.65886473 72.3302337 -14 74 C-15.98 74.99 -15.98 74.99 -18 76 C-18.80118392 74.65144233 -19.59041608 73.29578257 -20.375 71.9375 C-20.81585938 71.18339844 -21.25671875 70.42929688 -21.7109375 69.65234375 C-25.28903256 62.2901421 -25.26804449 55.57187109 -25.1953125 47.50390625 C-25.1924826 46.31522446 -25.18965271 45.12654266 -25.18673706 43.90184021 C-25.17558206 40.12195582 -25.15048566 36.34231224 -25.125 32.5625 C-25.11496417 29.99284197 -25.10583937 27.42318022 -25.09765625 24.85351562 C-25.07565801 18.56892887 -25.04222689 12.28448165 -25 6 C-22.45986091 5.1824493 -19.91806769 4.37084814 -17.375 3.5625 C-16.66214844 3.33240234 -15.94929688 3.10230469 -15.21484375 2.86523438 C-10.16186139 1.26589592 -5.34269642 0 0 0 Z " fill="#192D3D" transform="translate(76,26)"/>
<path d="M0 0 C0.33 0 0.66 0 1 0 C1.06058594 0.73605469 1.12117188 1.47210938 1.18359375 2.23046875 C1.26738281 3.20628906 1.35117188 4.18210937 1.4375 5.1875 C1.51871094 6.15042969 1.59992188 7.11335938 1.68359375 8.10546875 C1.97666151 10.78649602 2.42703754 13.3662986 3 16 C1.9275 15.79375 0.855 15.5875 -0.25 15.375 C-4.55420249 14.87477049 -4.55420249 14.87477049 -8 17 C-9.28254644 19.53770003 -9.28254644 19.53770003 -10 22 C-13 22 -13 22 -15.05078125 21.60546875 C-19.61922767 20.69247019 -19.61922767 20.69247019 -23.921875 22.046875 C-25.76509712 23.55891062 -25.76509712 23.55891062 -28 26 C-28 25.34 -28 24.68 -28 24 C-29.65 24.33 -31.3 24.66 -33 25 C-33 24.01 -33 23.02 -33 22 C-32.278125 21.773125 -31.55625 21.54625 -30.8125 21.3125 C-27.4484918 19.74262951 -25.50703313 17.71030608 -23 15 C-22.34 14.34 -21.68 13.68 -21 13 C-20.35232207 10.42938689 -20.35232207 10.42938689 -20 8 C-19.01 8 -18.02 8 -17 8 C-17 7.01 -17 6.02 -17 5 C-15.66195312 5.08701172 -15.66195312 5.08701172 -14.296875 5.17578125 C-13.12640625 5.22089844 -11.9559375 5.26601562 -10.75 5.3125 C-9.00976562 5.39951172 -9.00976562 5.39951172 -7.234375 5.48828125 C-3.80379029 5.312057 -3.80379029 5.312057 -1.640625 2.48046875 C-0.82851562 1.25263672 -0.82851562 1.25263672 0 0 Z " fill="#B02426" transform="translate(88,86)"/>
<path d="M0 0 C9.91071429 -0.66964286 9.91071429 -0.66964286 13.625 1.9375 C16.3954182 5.50988137 16.85449129 7.41608792 16.5 11.83984375 C16 14 16 14 14.1875 17.0625 C9.38336838 19.98265844 5.56347225 19.33514893 0 19 C0 12.73 0 6.46 0 0 Z " fill="#1A2E3F" transform="translate(143,134)"/>
<path d="M0 0 C3.66137545 0.55873844 6.1444393 1.48256219 9.21484375 3.5390625 C9.98376953 4.03664063 10.75269531 4.53421875 11.54492188 5.046875 C13.1408592 6.09954223 14.73203231 7.159468 16.31835938 8.2265625 C20.90643916 11.22060358 20.90643916 11.22060358 26.2109375 12.0625 C29.38831469 10.85207059 31.90305446 9.32450023 34.6875 7.375 C37.51171875 5.3984375 37.51171875 5.3984375 40 4 C40.99 4.33 41.98 4.66 43 5 C42.03577289 8.71357739 41.08307765 9.93801129 37.953125 12.2734375 C36.72754741 12.9892382 35.49274442 13.68943645 34.25 14.375 C33.6415625 14.74238281 33.033125 15.10976562 32.40625 15.48828125 C29.50951627 17.12852578 27.35742363 18.00140166 24.01171875 17.98828125 C20.17607366 16.72963247 16.97765664 14.94108656 13.5625 12.8125 C12.90306396 12.40974854 12.24362793 12.00699707 11.56420898 11.59204102 C6.99803783 8.75367146 2.90404299 5.71360187 -1 2 C-0.67 1.34 -0.34 0.68 0 0 Z " fill="#162B3C" transform="translate(68,109)"/>
<path d="M0 0 C1.65 0 3.3 0 5 0 C6.98 3.63 8.96 7.26 11 11 C11.33 7.37 11.66 3.74 12 0 C13.32 0 14.64 0 16 0 C16 6.27 16 12.54 16 19 C14.35 19 12.7 19 11 19 C9.19921875 16.8125 9.19921875 16.8125 7.6875 14 C7.17574219 13.071875 6.66398438 12.14375 6.13671875 11.1875 C5.76160156 10.465625 5.38648438 9.74375 5 9 C4.67 12.3 4.34 15.6 4 19 C2.68 19 1.36 19 0 19 C0 12.73 0 6.46 0 0 Z " fill="#14293A" transform="translate(123,134)"/>
<path d="M0 0 C5 1 5 1 6.58203125 2.84765625 C7.72135417 4.8984375 8.86067708 6.94921875 10 9 C10.33 6.03 10.66 3.06 11 0 C12.32 0 13.64 0 15 0 C15 6.27 15 12.54 15 19 C10 18 10 18 8.41796875 16.15234375 C7.27864583 14.1015625 6.13932292 12.05078125 5 10 C4.67 12.97 4.34 15.94 4 19 C2.68 19 1.36 19 0 19 C0 12.73 0 6.46 0 0 Z " fill="#15293B" transform="translate(48,134)"/>
<path d="M0 0 C4.29 0 8.58 0 13 0 C13 1.32 13 2.64 13 4 C10.36 4 7.72 4 5 4 C5 5.32 5 6.64 5 8 C7.31 8 9.62 8 12 8 C12 9.32 12 10.64 12 12 C9.69 12 7.38 12 5 12 C5 12.99 5 13.98 5 15 C7.64 15 10.28 15 13 15 C13 16.65 13 18.3 13 20 C8.71 20 4.42 20 0 20 C0 13.4 0 6.8 0 0 Z " fill="#57636C" transform="translate(32,134)"/>
<path d="M0 0 C1.65 0 3.3 0 5 0 C7.94776396 6.19479329 10.17778624 12.38757278 12 19 C10.35 19 8.7 19 7 19 C7 18.01 7 17.02 7 16 C4.36 16 1.72 16 -1 16 C-1.33 16.99 -1.66 17.98 -2 19 C-3.32 19 -4.64 19 -6 19 C-5.28739906 14.71620357 -3.93078264 10.74906147 -2.4375 6.6875 C-2.20353516 6.04232422 -1.96957031 5.39714844 -1.72851562 4.73242188 C-1.15552993 3.15378781 -0.57820536 1.57672974 0 0 Z " fill="#2A3C4A" transform="translate(108,134)"/>
<path d="M0 0 C2.5 1.875 2.5 1.875 4 4 C4 4.66 4 5.32 4 6 C2.35 6 0.7 6 -1 6 C-1.33 5.34 -1.66 4.68 -2 4 C-5.29075996 4.37904208 -5.29075996 4.37904208 -8 6 C-8.30523962 10.65088715 -8.30523962 10.65088715 -7 15 C-5.02 15 -3.04 15 -1 15 C-0.67 14.01 -0.34 13.02 0 12 C-1.32 12 -2.64 12 -4 12 C-4 11.01 -4 10.02 -4 9 C-1.36 9 1.28 9 4 9 C4.42780749 14.21925134 4.42780749 14.21925134 4 17 C1.21368159 19.70188452 -0.72519564 19.9662521 -4.5625 20.4375 C-8 20 -8 20 -10.375 18.125 C-13.17289905 14.46620893 -13.40889355 11.78890027 -13.3359375 7.265625 C-13 5 -13 5 -11 1.9375 C-6.83994881 -0.74919973 -4.89701312 -0.6995733 0 0 Z " fill="#1A2E3E" transform="translate(80,134)"/>
<path d="M0 0 C1.65 0 3.3 0 5 0 C5 1.98 5 3.96 5 6 C7.31 6 9.62 6 12 6 C12 7.65 12 9.3 12 11 C9.69 11 7.38 11 5 11 C5 13.31 5 15.62 5 18 C3.35 18 1.7 18 0 18 C0 15.69 0 13.38 0 11 C-2.31 11 -4.62 11 -7 11 C-7 9.35 -7 7.7 -7 6 C-4.69 6 -2.38 6 0 6 C0 4.02 0 2.04 0 0 Z " fill="#B12729" transform="translate(67,41)"/>
<path d="M0 0 C-0.66 0.99 -1.32 1.98 -2 3 C-4.1015625 3.3359375 -4.1015625 3.3359375 -6.625 3.375 C-12.04059336 3.7741261 -15.97971582 5.30449861 -20 9 C-24.0672664 13.87928248 -24.53516437 17.3097732 -24.25 23.375 C-24.22292969 24.47908203 -24.22292969 24.47908203 -24.1953125 25.60546875 C-24.14859176 27.40421736 -24.07686183 29.20228711 -24 31 C-24.99 31.33 -25.98 31.66 -27 32 C-27.66 27.71 -28.32 23.42 -29 19 C-30.32 20.32 -31.64 21.64 -33 23 C-34.32 22.01 -35.64 21.02 -37 20 C-36.01 19.731875 -35.02 19.46375 -34 19.1875 C-30.09726692 17.56070946 -28.50372598 15.15948029 -26.1875 11.6875 C-19.2481819 1.64480164 -12.01745324 -1.11502144 0 0 Z " fill="#F6EDE4" transform="translate(117,68)"/>
<path d="M0 0 C0.33 0.99 0.66 1.98 1 3 C1.66 3 2.32 3 3 3 C3.07418336 8.76575914 3.12861797 14.53124017 3.16479492 20.29736328 C3.17987695 22.25867553 3.20034547 24.21995408 3.22631836 26.18115234 C3.26272731 29.00106118 3.27973216 31.82052392 3.29296875 34.640625 C3.30845261 35.51680481 3.32393646 36.39298462 3.33988953 37.29571533 C3.34011612 38.11626404 3.34034271 38.93681274 3.34057617 39.78222656 C3.34723801 40.50170471 3.35389984 41.22118286 3.36076355 41.96246338 C3 44 3 44 0 48 C0 32.16 0 16.32 0 0 Z " fill="#061E32" transform="translate(51,33)"/>
<path d="M0 0 C2 2 2 2 2.25 4.9375 C2 8 2 8 0 11 C-3.93587537 11.51020607 -6.13406947 11.56285485 -9.5 9.375 C-11 7 -11 7 -11.0625 3.875 C-10 1 -10 1 -7.75 -0.4375 C-4.72748884 -1.05574092 -2.92282191 -0.94794224 0 0 Z " fill="#F2EDE4" transform="translate(112,91)"/>
<path d="M0 0 C1.1446875 0.3403125 1.1446875 0.3403125 2.3125 0.6875 C2.3125 1.3475 2.3125 2.0075 2.3125 2.6875 C4.6225 2.0275 6.9325 1.3675 9.3125 0.6875 C8.9825 4.6475 8.6525 8.6075 8.3125 12.6875 C7.9825 12.6875 7.6525 12.6875 7.3125 12.6875 C7.3125 10.3775 7.3125 8.0675 7.3125 5.6875 C4.6725 5.6875 2.0325 5.6875 -0.6875 5.6875 C-0.6875 6.6775 -0.6875 7.6675 -0.6875 8.6875 C0.6325 8.6875 1.9525 8.6875 3.3125 8.6875 C2.9825 10.0075 2.6525 11.3275 2.3125 12.6875 C-0.5625 12.875 -0.5625 12.875 -3.6875 12.6875 C-6.15074069 8.99263897 -6.07741688 7.05456908 -5.6875 2.6875 C-3.97907171 -0.18985291 -3.34260852 -0.38867541 0 0 Z " fill="#F1EDE4" transform="translate(76.6875,137.3125)"/>
<path d="M0 0 C2.375 0.9375 2.375 0.9375 4.375 3.9375 C4.02858161 7.40168389 3.34213413 8.98679881 1.375 11.9375 C-2.25 12.625 -2.25 12.625 -5.625 12.9375 C-7.625 9.9375 -7.625 9.9375 -7.5 7 C-6.27445724 2.71060033 -4.77420766 -0.11367161 0 0 Z " fill="#F4EFE5" transform="translate(107.625,77.0625)"/>
<path d="M0 0 C0.8971875 0.928125 0.8971875 0.928125 1.8125 1.875 C4.00811144 4.13676954 4.00811144 4.13676954 7 6 C6.01 6.495 6.01 6.495 5 7 C3.91240913 11.09392846 3.91240913 11.09392846 5 15 C1.62496331 13.8141763 -0.64722731 12.72426311 -3 10 C-3.66 10.99 -4.32 11.98 -5 13 C-6 12 -6 12 -6.09765625 9.49609375 C-6.08605469 8.48675781 -6.07445313 7.47742188 -6.0625 6.4375 C-6.05347656 5.42558594 -6.04445313 4.41367188 -6.03515625 3.37109375 C-6.02355469 2.58863281 -6.01195313 1.80617188 -6 1 C-5.34 1 -4.68 1 -4 1 C-4 1.66 -4 2.32 -4 3 C-2.68 2.01 -1.36 1.02 0 0 Z " fill="#0B2234" transform="translate(98,85)"/>
<path d="M0 0 C0.66 0 1.32 0 2 0 C2 6.27 2 12.54 2 19 C1.34 19.33 0.68 19.66 0 20 C0 18.35 0 16.7 0 15 C-2.64 15 -5.28 15 -8 15 C-8 14.01 -8 13.02 -8 12 C-5.69 12 -3.38 12 -1 12 C-1 10.68 -1 9.36 -1 8 C-3.31 8 -5.62 8 -8 8 C-8 6.68 -8 5.36 -8 4 C-5.36 4 -2.72 4 0 4 C0 2.68 0 1.36 0 0 Z " fill="#FBF8ED" transform="translate(45,134)"/>
<path d="M0 0 C0.3403125 0.928125 0.3403125 0.928125 0.6875 1.875 C2.44542908 4.7211709 3.83264027 4.96716531 7 6 C8.43934325 6.53674952 9.87676961 7.07866012 11.3125 7.625 C12.529375 8.07875 13.74625 8.5325 15 9 C14.01 9.33 13.02 9.66 12 10 C12 11.32 12 12.64 12 14 C11.34 14 10.68 14 10 14 C10 14.66 10 15.32 10 16 C5.51250298 14.81213314 2.96997072 12.44567873 0.09375 8.953125 C-1 7 -1 7 -0.875 3.0625 C-0.58625 2.051875 -0.2975 1.04125 0 0 Z " fill="#2A3B49" transform="translate(94,93)"/>
<path d="M0 0 C1.32 0 2.64 0 4 0 C4 5.28 4 10.56 4 16 C6.31 16 8.62 16 11 16 C11 16.99 11 17.98 11 19 C7.37 19 3.74 19 0 19 C0 12.73 0 6.46 0 0 Z " fill="#092032" transform="translate(88,134)"/>
<path d="M0 0 C1.25 2.0625 1.25 2.0625 2 4 C-0.88341534 8.21422242 -3.04303419 9.76075855 -8 11 C-8.66 10.34 -9.32 9.68 -10 9 C-9.63723355 6.17042171 -8.90305236 3.70915709 -8 1 C-5.12227938 -0.98463491 -3.22138526 -1.50331312 0 0 Z " fill="#D7D0C6" transform="translate(124,94)"/>
<path d="M0 0 C2.4375 0.8125 2.4375 0.8125 4.4375 2.8125 C4.6875 5.8125 4.6875 5.8125 4.4375 8.8125 C2.4375 10.8125 2.4375 10.8125 0 11.125 C-2.5625 10.8125 -2.5625 10.8125 -4.375 9.625 C-5.98775784 7.16342224 -5.9959014 5.70184264 -5.5625 2.8125 C-3.86282344 0.12880016 -3.19877434 -0.23405666 0 0 Z " fill="#162536" transform="translate(45.5625,159.1875)"/>
<path d="M0 0 C3 0.25 3 0.25 5 2.25 C4.625 5.875 4.625 5.875 4 9.25 C-1.44736842 10.58157895 -1.44736842 10.58157895 -3.875 9.125 C-5.3568671 6.65522151 -5.3633156 5.08386167 -5 2.25 C-3 0.25 -3 0.25 0 0 Z " fill="#323F4C" transform="translate(57,159.75)"/>
<path d="M0 0 C5.25803515 2.70413236 9.09608181 6.28824543 11 12 C11.11904875 14.01829161 11.17521712 16.04073771 11.1875 18.0625 C11.20167969 19.12597656 11.21585938 20.18945312 11.23046875 21.28515625 C11 24 11 24 9 26 C8.34 25.67 7.68 25.34 7 25 C7.13019531 24.20335938 7.26039062 23.40671875 7.39453125 22.5859375 C8.36347314 16.67262342 8.36347314 16.67262342 7.05859375 11.0078125 C5.59021244 9.25602062 5.59021244 9.25602062 3 7 C0 3.37931034 0 3.37931034 0 0 Z " fill="#192D3D" transform="translate(120,73)"/>
<path d="M0 0 C4.55737263 0.43820891 7.57653445 0.85041169 11 4 C10.625 6.4375 10.625 6.4375 10 9 C9.01 9.495 9.01 9.495 8 10 C1.6 7.6 1.6 7.6 -1 5 C-0.625 2.375 -0.625 2.375 0 0 Z " fill="#F2EEE5" transform="translate(112,74)"/>
<path d="M0 0 C5 0 5 0 6.875 1.0625 C8.66310335 4.14201133 7.74592606 6.64333273 7 10 C6 11 6 11 2.9375 11.0625 C1.968125 11.041875 0.99875 11.02125 0 11 C0 7.37 0 3.74 0 0 Z " fill="#F1ECE3" transform="translate(147,138)"/>
<path d="M0 0 C2.31 0 4.62 0 7 0 C7.33 2.97 7.66 5.94 8 9 C5.29120665 10.35439668 2.99066732 10.06501451 0 10 C0 6.7 0 3.4 0 0 Z " fill="#4A5460" transform="translate(72,160)"/>
<path d="M0 0 C1.98 0 3.96 0 6 0 C6.95024979 3.69541586 6.95024979 6.30458414 6 10 C4.02 10 2.04 10 0 10 C0 6.7 0 3.4 0 0 Z " fill="#152637" transform="translate(142,160)"/>
<path d="M0 0 C3.875 1.75 3.875 1.75 5 4 C5.46153846 9.42307692 5.46153846 9.42307692 3.5 11.875 C2.7575 12.431875 2.7575 12.431875 2 13 C0 11.4375 0 11.4375 -2 9 C-2.375 5.375 -2.375 5.375 -2 2 C-1.34 1.34 -0.68 0.68 0 0 Z " fill="#D1CAC1" transform="translate(124,82)"/>
<path d="M0 0 C1.51566056 2.94939352 2.86290106 5.93356701 4.125 9 C4.47820313 9.845625 4.83140625 10.69125 5.1953125 11.5625 C6 14 6 14 6 18 C5.01 18.33 4.02 18.66 3 19 C0.29168666 15.23744389 -2.0778425 11.94069394 -1.88671875 7.17578125 C-1.37371519 4.72941735 -0.77827501 2.37448237 0 0 Z " fill="#192E3E" transform="translate(55,83)"/>
<path d="M0 0 C3 3 3 3 3.29296875 5.91796875 C3.25816406 6.99691406 3.22335938 8.07585937 3.1875 9.1875 C3.16042969 10.27417969 3.13335937 11.36085937 3.10546875 12.48046875 C3.07066406 13.31191406 3.03585938 14.14335937 3 15 C7.60742865 13.78955868 7.60742865 13.78955868 12 12 C12 16 12 16 11 18 C7.37 18 3.74 18 0 18 C0 12.06 0 6.12 0 0 Z " fill="#061D30" transform="translate(143,135)"/>
<path d="M0 0 C1.65 0 3.3 0 5 0 C5.69937202 1.4317616 6.38412718 2.87067032 7.0625 4.3125 C7.44535156 5.11300781 7.82820313 5.91351563 8.22265625 6.73828125 C9 9 9 9 8 12 C7.01 11.67 6.02 11.34 5 11 C4.67 9.02 4.34 7.04 4 5 C3.34 5 2.68 5 2 5 C2 5.66 2 6.32 2 7 C1.01 7 0.02 7 -1 7 C-0.67 4.69 -0.34 2.38 0 0 Z " fill="#152A3B" transform="translate(108,134)"/>
<path d="M0 0 C0.33 0.99 0.66 1.98 1 3 C1.66 3 2.32 3 3 3 C1.85569823 6.87302138 0.76679902 10.00263439 -2 13 C-2.66 13 -3.32 13 -4 13 C-4 12.34 -4 11.68 -4 11 C-4.66 11 -5.32 11 -6 11 C-5.55530671 5.96014269 -3.28656638 3.62365012 0 0 Z " fill="#1F3241" transform="translate(98,75)"/>
<path d="M0 0 C0.33 0 0.66 0 1 0 C1.06058594 0.66386719 1.12117188 1.32773438 1.18359375 2.01171875 C1.79863507 8.54908081 1.79863507 8.54908081 3 15 C5.64 15 8.28 15 11 15 C11 15.99 11 16.98 11 18 C7.37 18 3.74 18 0 18 C0 12.06 0 6.12 0 0 Z " fill="#04192D" transform="translate(33,135)"/>
<path d="M0 0 C1.32 0 2.64 0 4 0 C4.99 3.3 5.98 6.6 7 10 C6.01 10 5.02 10 4 10 C4 9.34 4 8.68 4 8 C2.02 8.66 0.04 9.32 -2 10 C-1.54177532 6.53058454 -1.10868317 3.32604951 0 0 Z " fill="#47535E" transform="translate(84,160)"/>
<path d="M0 0 C0.33 0.66 0.66 1.32 1 2 C1.99 2 2.98 2 4 2 C4 1.34 4 0.68 4 0 C4.66 0 5.32 0 6 0 C6.66 2.64 7.32 5.28 8 8 C4.66666667 8 1.33333333 8 -2 8 C-1.34 5.36 -0.68 2.72 0 0 Z " fill="#283A49" transform="translate(106,139)"/>
<path d="M0 0 C2.31 0 4.62 0 7 0 C7 0.99 7 1.98 7 3 C5.68 3 4.36 3 3 3 C3 3.66 3 4.32 3 5 C3.99 5 4.98 5 6 5 C6 5.66 6 6.32 6 7 C5.01 7 4.02 7 3 7 C3 8.32 3 9.64 3 11 C2.01 11 1.02 11 0 11 C0 7.37 0 3.74 0 0 Z " fill="#535B64" transform="translate(32,159)"/>
<path d="M0 0 C0.94875 0.04125 1.8975 0.0825 2.875 0.125 C3.205 1.115 3.535 2.105 3.875 3.125 C2.225 2.795 0.575 2.465 -1.125 2.125 C-1.125 3.775 -1.125 5.425 -1.125 7.125 C-0.135 7.455 0.855 7.785 1.875 8.125 C1.875 7.465 1.875 6.805 1.875 6.125 C2.535 6.125 3.195 6.125 3.875 6.125 C3.215 7.445 2.555 8.765 1.875 10.125 C-2.875 9.375 -2.875 9.375 -5.125 7.125 C-5.375 4.625 -5.375 4.625 -5.125 2.125 C-3.125 0.125 -3.125 0.125 0 0 Z " fill="#293645" transform="translate(117.125,159.875)"/>
<path d="M0 0 C0.66 0 1.32 0 2 0 C2.33 2.31 2.66 4.62 3 7 C3.99 7.33 4.98 7.66 6 8 C6 5.36 6 2.72 6 0 C6.66 0 7.32 0 8 0 C8.02689216 1.47906892 8.04634621 2.95827483 8.0625 4.4375 C8.07410156 5.26121094 8.08570313 6.08492187 8.09765625 6.93359375 C8 9 8 9 7 10 C4.5625 10.1875 4.5625 10.1875 2 10 C0 8 0 8 -0.1953125 6.0546875 C-0.13020833 4.03645833 -0.06510417 2.01822917 0 0 Z " fill="#253241" transform="translate(131,160)"/>
<path d="M0 0 C0.33 0 0.66 0 1 0 C1.33 1.65 1.66 3.3 2 5 C2.33 4.34 2.66 3.68 3 3 C3.66 3 4.32 3 5 3 C5 3.99 5 4.98 5 6 C6.32 6 7.64 6 9 6 C8.67 7.32 8.34 8.64 8 10 C5.125 10.1875 5.125 10.1875 2 10 C-0.4294516 6.3558226 -0.16179575 4.28758728 0 0 Z " fill="#E1DED7" transform="translate(71,140)"/>
<path d="M0 0 C1.75 1.5625 1.75 1.5625 3 3 C-0.87684087 4.19287411 -3.91621923 5 -8 5 C-8.33 3.68 -8.66 2.36 -9 1 C-5.61546945 -0.59825054 -3.53366945 -1.53125676 0 0 Z " fill="#182D3E" transform="translate(60,31)"/>
<path d="M0 0 C1.98 0 3.96 0 6 0 C6 0.66 6 1.32 6 2 C4.68 1.67 3.36 1.34 2 1 C2 1.99 2 2.98 2 4 C3.32 4 4.64 4 6 4 C6 5.65 6 7.3 6 9 C1.25 10.125 1.25 10.125 -1 9 C-1 8.34 -1 7.68 -1 7 C1.475 7.495 1.475 7.495 4 8 C4 7.34 4 6.68 4 6 C2.68 5.67 1.36 5.34 0 5 C0 3.35 0 1.7 0 0 Z " fill="#273443" transform="translate(152,160)"/>
<path d="M0 0 C0.33 1.32 0.66 2.64 1 4 C3.31 4 5.62 4 8 4 C8 5.32 8 6.64 8 8 C5.03 8 2.06 8 -1 8 C-1 4.88742431 -0.82638376 2.89234315 0 0 Z " fill="#2F404E" transform="translate(36,138)"/>
<path d="M0 0 C0.33 0.66 0.66 1.32 1 2 C2.65 2 4.3 2 6 2 C6.33 2.66 6.66 3.32 7 4 C4.69 4 2.38 4 0 4 C-0.33 5.32 -0.66 6.64 -1 8 C-2.32 8 -3.64 8 -5 8 C-4.64950425 4.75791433 -4.43778819 3.38472296 -1.9375 1.1875 C-1.298125 0.795625 -0.65875 0.40375 0 0 Z " fill="#051D30" transform="translate(107,145)"/>
<path d="M0 0 C2.64 0 5.28 0 8 0 C8 2.64 8 5.28 8 8 C6.68 7.34 5.36 6.68 4 6 C4 5.01 4 4.02 4 3 C2.68 3 1.36 3 0 3 C0 2.01 0 1.02 0 0 Z " fill="#0E2436" transform="translate(76,143)"/>
<path d="M0 0 C1.32 0.99 2.64 1.98 4 3 C0.78153438 6.58629026 -1.15676894 8.50325835 -6 9 C-7.33542939 9.32483418 -8.66961551 9.6550855 -10 10 C-9.67 9.34 -9.34 8.68 -9 8 C-8.34 8 -7.68 8 -7 8 C-7 7.34 -7 6.68 -7 6 C-5.01310269 4.64721885 -3.01254782 3.31431695 -1 2 C-0.67 1.34 -0.34 0.68 0 0 Z " fill="#3C4A55" transform="translate(125,98)"/>
<path d="M0 0 C-0.3358407 3.10652645 -0.59049279 4.60414303 -2.875 6.8125 C-5 8 -5 8 -8 8 C-7.75 5.125 -7.75 5.125 -7 2 C-4.45285085 0.13209062 -3.19131 0 0 0 Z " fill="#F5F0E6" transform="translate(123,93)"/>
<path d="M0 0 C-2 3 -2 3 -4.20703125 3.44140625 C-5.06683594 3.48136719 -5.92664063 3.52132812 -6.8125 3.5625 C-10.58426237 3.82450375 -13.57070523 4.28535261 -17 6 C-17.66 5.34 -18.32 4.68 -19 4 C-12.76335625 -0.53574091 -7.56198897 -0.44701413 0 0 Z " fill="#E3D0C9" transform="translate(117,68)"/>
<path d="M0 0 C2.00720923 0.28674418 4.0085944 0.61866701 6 1 C6 3.31 6 5.62 6 8 C5.34 7.67 4.68 7.34 4 7 C4.33 6.34 4.66 5.68 5 5 C4.34 5 3.68 5 3 5 C3 5.66 3 6.32 3 7 C1.68 6.67 0.36 6.34 -1 6 C-1.042721 4.33388095 -1.04063832 2.66617115 -1 1 C-0.67 0.67 -0.34 0.34 0 0 Z " fill="#EEE9E1" transform="translate(116,161)"/>
<path d="M0 0 C0.99 0 1.98 0 3 0 C3 2.64 3 5.28 3 8 C4.32 8 5.64 8 7 8 C7 8.66 7 9.32 7 10 C4.69 10 2.38 10 0 10 C0 6.7 0 3.4 0 0 Z " fill="#46515C" transform="translate(100,160)"/>
<path d="M0 0 C0.99 0 1.98 0 3 0 C3 2.64 3 5.28 3 8 C3.99 8 4.98 8 6 8 C6 8.66 6 9.32 6 10 C4.02 10 2.04 10 0 10 C0 6.7 0 3.4 0 0 Z " fill="#3E4854" transform="translate(123,160)"/>
<path d="M0 0 C3.18609925 0.35401103 4.79066678 0.83027036 7.3125 2.875 C9 5 9 5 9 8 C4.75153925 7.52794881 2.73180712 5.11122478 0 2 C0 1.34 0 0.68 0 0 Z " fill="#ECE6DB" transform="translate(96,98)"/>
<path d="M0 0 C3.53600465 1.91135386 5.78972846 3.62642766 8 7 C7.01 8.485 7.01 8.485 6 10 C3.72328514 7.83170013 1.72813851 5.63335392 0 3 C0 2.01 0 1.02 0 0 Z " fill="#0C2234" transform="translate(120,73)"/>
<path d="M0 0 C1.85776765 3.13498292 2.20140476 5.37471432 2 9 C0.68 9 -0.64 9 -2 9 C-2.125 5.625 -2.125 5.625 -2 2 C-1.34 1.34 -0.68 0.68 0 0 Z " fill="#F2EDE3" transform="translate(124,82)"/>
<path d="M0 0 C0.99 0.33 1.98 0.66 3 1 C3 2.98 3 4.96 3 7 C1.35 6.67 -0.3 6.34 -2 6 C-1.125 1.125 -1.125 1.125 0 0 Z " fill="#E1DFD9" transform="translate(56,161)"/>
<path d="M0 0 C0.66 0 1.32 0 2 0 C2 2.64 2 5.28 2 8 C1.01 8.33 0.02 8.66 -1 9 C-2 8 -2 8 -2.1875 5.0625 C-2 2 -2 2 0 0 Z " fill="#092033" transform="translate(69,140)"/>
<path d="M0 0 C-0.33 3.96 -0.66 7.92 -1 12 C-1.33 12 -1.66 12 -2 12 C-2 9.69 -2 7.38 -2 5 C-4.64 5 -7.28 5 -10 5 C-7.21757442 2.73283841 -3.7743739 0 0 0 Z " fill="#EAE5DC" transform="translate(86,138)"/>
<path d="M0 0 C0.66 0 1.32 0 2 0 C2 2.64 2 5.28 2 8 C3.32 8 4.64 8 6 8 C6 8.66 6 9.32 6 10 C4.02 10 2.04 10 0 10 C0 6.7 0 3.4 0 0 Z " fill="#21303F" transform="translate(93,160)"/>
<path d="M0 0 C1.65 0 3.3 0 5 0 C5 1.65 5 3.3 5 5 C3.0625 5.5625 3.0625 5.5625 1 6 C0 5 0 5 -0.0625 2.4375 C-0.041875 1.633125 -0.02125 0.82875 0 0 Z " fill="#EEEBE3" transform="translate(43,162)"/>
<path d="M0 0 C0.66 0.66 1.32 1.32 2 2 C4.57061311 2.64767793 4.57061311 2.64767793 7 3 C6.67 3.66 6.34 4.32 6 5 C3.125 5.8125 3.125 5.8125 0 6 C-1.875 4.5625 -1.875 4.5625 -3 3 C-2.01 2.01 -1.02 1.02 0 0 Z " fill="#172C3D" transform="translate(71,147)"/>
<path d="M0 0 C2.4375 0.75 2.4375 0.75 5 2 C5.8125 4.125 5.8125 4.125 6 6 C4.35 6 2.7 6 1 6 C0.67 4.02 0.34 2.04 0 0 Z " fill="#1B2F3F" transform="translate(78,134)"/>
<path d="M0 0 C1.32 0 2.64 0 4 0 C4 2.31 4 4.62 4 7 C2.68 7 1.36 7 0 7 C0 4.69 0 2.38 0 0 Z " fill="#8A9195" transform="translate(143,161)"/>
<path d="M0 0 C2.31 0.33 4.62 0.66 7 1 C6.67 2.32 6.34 3.64 6 5 C3.69 4.01 1.38 3.02 -1 2 C-0.67 1.34 -0.34 0.68 0 0 Z " fill="#243645" transform="translate(113,71)"/>
<path d="M0 0 C0.78375 0.04125 1.5675 0.0825 2.375 0.125 C1.055 1.115 -0.265 2.105 -1.625 3.125 C-1.295 5.105 -0.965 7.085 -0.625 9.125 C-1.615 9.125 -2.605 9.125 -3.625 9.125 C-4.25 5.75 -4.25 5.75 -4.625 2.125 C-2.625 0.125 -2.625 0.125 0 0 Z " fill="#1B2838" transform="translate(56.625,159.875)"/>
<path d="M0 0 C0.33 0.66 0.66 1.32 1 2 C0.00390625 3.9453125 0.00390625 3.9453125 -1.4375 6.125 C-1.91058594 6.84945312 -2.38367188 7.57390625 -2.87109375 8.3203125 C-3.24363281 8.87460938 -3.61617188 9.42890625 -4 10 C-4.66 9.67 -5.32 9.34 -6 9 C-4.3619751 5.48994665 -2.96865509 2.54456151 0 0 Z " fill="#D5D5D1" transform="translate(100,78)"/>
<path d="M0 0 C3.36720387 1.39332574 4.9859524 2.9789286 7 6 C6.01 6.33 5.02 6.66 4 7 C1.7363436 5.59554165 -0.0208685 3.8032087 -2 2 C-1.34 1.34 -0.68 0.68 0 0 Z " fill="#E7DED6" transform="translate(123,72)"/>
<path d="M0 0 C1.98 0 3.96 0 6 0 C6 0.66 6 1.32 6 2 C6.99 2.33 7.98 2.66 9 3 C6.69 3.33 4.38 3.66 2 4 C1.34 2.68 0.68 1.36 0 0 Z " fill="#122839" transform="translate(59,29)"/>
<path d="M0 0 C0.33 0 0.66 0 1 0 C1.05399736 1.45792884 1.09279177 2.91642712 1.125 4.375 C1.14820313 5.18710938 1.17140625 5.99921875 1.1953125 6.8359375 C1 9 1 9 -1 11 C-2.35439668 8.29120665 -2.06501451 5.99066732 -2 3 C-1.34 3 -0.68 3 0 3 C0 2.01 0 1.02 0 0 Z " fill="#071E30" transform="translate(54,80)"/>
<path d="M0 0 C0.598125 0.226875 1.19625 0.45375 1.8125 0.6875 C1.8125 1.3475 1.8125 2.0075 1.8125 2.6875 C0.4925 2.6875 -0.8275 2.6875 -2.1875 2.6875 C-2.31125 3.326875 -2.435 3.96625 -2.5625 4.625 C-2.76875 5.305625 -2.975 5.98625 -3.1875 6.6875 C-4.1775 7.1825 -4.1775 7.1825 -5.1875 7.6875 C-5.41803497 4.84423536 -5.54653101 3.22604651 -3.9375 0.8125 C-2.1875 -0.3125 -2.1875 -0.3125 0 0 Z " fill="#646D74" transform="translate(45.1875,159.3125)"/>
<path d="M0 0 C2.97 0.33 5.94 0.66 9 1 C9 1.33 9 1.66 9 2 C6.69 2 4.38 2 2 2 C1.67 3.65 1.34 5.3 1 7 C0.67 7 0.34 7 0 7 C0 4.69 0 2.38 0 0 Z " fill="#0F2537" transform="translate(34,136)"/>
<path d="M0 0 C0 0.66 0 1.32 0 2 C-1.96147874 3.38938077 -3.96166576 4.7260411 -6 6 C-6.33 4.68 -6.66 3.36 -7 2 C-4.35261084 0.5393715 -3.10551666 0 0 0 Z " fill="#162A3B" transform="translate(124,105)"/>
<path d="M0 0 C0.66 0 1.32 0 2 0 C2.33 2.31 2.66 4.62 3 7 C1.68 7 0.36 7 -1 7 C-0.67 4.69 -0.34 2.38 0 0 Z " fill="#DAD8D2" transform="translate(110,139)"/>
<path d="M0 0 C2.97 0.33 5.94 0.66 9 1 C9 1.99 9 2.98 9 4 C8.01 4 7.02 4 6 4 C5.67 3.01 5.34 2.02 5 1 C3.35 1 1.7 1 0 1 C0 0.67 0 0.34 0 0 Z " fill="#E5C8C1" transform="translate(66,106)"/>
<path d="M0 0 C1.32 1.65 2.64 3.3 4 5 C-1.0625 6.6875 -1.0625 6.6875 -3 7 C-3.66 6.34 -4.32 5.68 -5 5 C-3.68 5 -2.36 5 -1 5 C-0.67 3.35 -0.34 1.7 0 0 Z " fill="#C15554" transform="translate(84,50)"/>
<path d="M0 0 C5.75 0.875 5.75 0.875 8 2 C8 2.66 8 3.32 8 4 C7.21625 3.814375 6.4325 3.62875 5.625 3.4375 C3.02910225 2.74037734 3.02910225 2.74037734 1 4 C0.67 2.68 0.34 1.36 0 0 Z " fill="#ECE9E1" transform="translate(148,164)"/>
<path d="M0 0 C0.66 0.99 1.32 1.98 2 3 C1.34 4.32 0.68 5.64 0 7 C-0.99 6.34 -1.98 5.68 -3 5 C-2.625 3.0625 -2.625 3.0625 -2 1 C-1.34 0.67 -0.68 0.34 0 0 Z " fill="#1B2F40" transform="translate(156,145)"/>
<path d="M0 0 C0.33 0 0.66 0 1 0 C1.33 4.29 1.66 8.58 2 13 C1.01 13.33 0.02 13.66 -1 14 C-0.67 9.38 -0.34 4.76 0 0 Z " fill="#AFACAA" transform="translate(91,86)"/>
<path d="M0 0 C-2.97 2.475 -2.97 2.475 -6 5 C-7.32 4.01 -8.64 3.02 -10 2 C-3.375 -1.125 -3.375 -1.125 0 0 Z " fill="#ECCEC7" transform="translate(90,86)"/>
<path d="M0 0 C0.99 1.32 1.98 2.64 3 4 C2.01 5.485 2.01 5.485 1 7 C0.01 7 -0.98 7 -2 7 C-1.34 4.69 -0.68 2.38 0 0 Z " fill="#F3DDD5" transform="translate(121,56)"/>
<path d="M0 0 C3.26954202 0.56371414 4.82575883 1.49962266 7 4 C5.02 4.33 3.04 4.66 1 5 C0.67 3.35 0.34 1.7 0 0 Z " fill="#324351" transform="translate(56,30)"/>
<path d="M0 0 C0.185625 0.9590625 0.185625 0.9590625 0.375 1.9375 C0.684375 2.9584375 0.684375 2.9584375 1 4 C1.66 4.33 2.32 4.66 3 5 C2.01 5 1.02 5 0 5 C-0.33 5.99 -0.66 6.98 -1 8 C-1.93065133 5.39417629 -2.14917407 4.35801776 -1.0625 1.75 C-0.711875 1.1725 -0.36125 0.595 0 0 Z " fill="#172738" transform="translate(84,162)"/>
<path d="M0 0 C0.99 0.33 1.98 0.66 3 1 C3.33 1.99 3.66 2.98 4 4 C2.35 4.33 0.7 4.66 -1 5 C-0.67 3.35 -0.34 1.7 0 0 Z " fill="#1D3040" transform="translate(103,148)"/>
<path d="M0 0 C2.08954032 4.17908064 2.16552619 4.80410573 1 9 C0.01 9.33 -0.98 9.66 -2 10 C-1.34 6.7 -0.68 3.4 0 0 Z " fill="#2A3C4A" transform="translate(55,83)"/>
</svg>
