<?xml version="1.0" encoding="UTF-8"?>
<svg version="1.1" xmlns="http://www.w3.org/2000/svg" width="32" height="32">
<path d="M0 0 C4.36872308 2.18436154 7.48211211 4.80352018 10 9 C11.41547619 13.76695852 11.47626057 17.74021687 9.4375 22.3125 C7.18320569 26.11519849 5.15087696 28.22105273 1 30 C-4.56121107 30.73334651 -9.30958187 30.72446491 -14.5 28.5 C-18.26133407 24.73866593 -20.68434891 21.11371073 -21.23046875 15.7265625 C-20.98587325 10.41793424 -19.22485871 7.27793119 -15.66796875 3.41015625 C-10.90639255 -0.61543861 -6.01504839 -0.77091601 0 0 Z " fill="#E6E8EA" transform="translate(21,1)"/>
<path d="M0 0 C4.36872308 2.18436154 7.48211211 4.80352018 10 9 C11.41547619 13.76695852 11.47626057 17.74021687 9.4375 22.3125 C7.18320569 26.11519849 5.15087696 28.22105273 1 30 C-4.56121107 30.73334651 -9.30958187 30.72446491 -14.5 28.5 C-18.26133407 24.73866593 -20.68434891 21.11371073 -21.23046875 15.7265625 C-20.98587325 10.41793424 -19.22485871 7.27793119 -15.66796875 3.41015625 C-10.90639255 -0.61543861 -6.01504839 -0.77091601 0 0 Z M-15 5 C-15 5.66 -15 6.32 -15 7 C-14.34 7 -13.68 7 -13 7 C-13.66 9.64 -14.32 12.28 -15 15 C-16.32 14.67 -17.64 14.34 -19 14 C-18.51515724 18.64586892 -18.51515724 18.64586892 -17 23 C-16.34 23 -15.68 23 -15 23 C-14.67 22.34 -14.34 21.68 -14 21 C-12.68 21 -11.36 21 -10 21 C-9.06576355 24.01031744 -8.95550089 24.86650268 -10 28 C-6.7 28 -3.4 28 0 28 C-0.33 27.01 -0.66 26.02 -1 25 C-0.5625 22.8125 -0.5625 22.8125 0 21 C2.375 20.375 2.375 20.375 5 20 C5.66 20.66 6.32 21.32 7 22 C8.42944945 19.64561267 9.08661261 18.51967567 8.625 15.75 C8.315625 14.88375 8.315625 14.88375 8 14 C7.01 14.33 6.02 14.66 5 15 C4.67 12.69 4.34 10.38 4 8 C4.66 8 5.32 8 6 8 C5.67 7.01 5.34 6.02 5 5 C2.49552484 3.78130071 2.49552484 3.78130071 0 3 C0 3.66 0 4.32 0 5 C-0.556875 4.835 -1.11375 4.67 -1.6875 4.5 C-4.18691249 3.95958649 -6.45045662 3.92917935 -9 4 C-9 3.34 -9 2.68 -9 2 C-11.79908133 2 -12.92722373 3.2035939 -15 5 Z " fill="#1C3048" transform="translate(21,1)"/>
<path d="M0 0 C2.8796023 3.42809797 2.13431411 7.76910566 2 12 C2 12.99 2 13.98 2 15 C2 15.66 2 16.32 2 17 C-1.3 17 -4.6 17 -8 17 C-7.67 16.01 -7.34 15.02 -7 14 C-7.32441604 12.33157466 -7.65939189 10.66519519 -8 9 C-8.03824623 6.66698014 -8.04574284 4.33288492 -8 2 C-8.66 1.67 -9.32 1.34 -10 1 C-6.29223511 -0.80091438 -3.93496467 -1.48890555 0 0 Z " fill="#20364E" transform="translate(19,12)"/>
<path d="M0 0 C0.66 1.32 1.32 2.64 2 4 C2.66 3.01 3.32 2.02 4 1 C3.93622522 4.25251392 3.82573894 6.91688788 1.796875 9.578125 C-2.78408864 13.44748264 -7.31186637 13.52922736 -13.1328125 13.46875 C-16.34965566 12.94283559 -18.33417418 11.83580679 -21 10 C-20.67 7.69 -20.34 5.38 -20 3 C-17.625 3.1875 -17.625 3.1875 -15 4 C-13.6875 6.5625 -13.6875 6.5625 -13 9 C-13.66 9 -14.32 9 -15 9 C-15 9.66 -15 10.32 -15 11 C-11.7 11 -8.4 11 -5 11 C-5 10.34 -5 9.68 -5 9 C-5.66 8.67 -6.32 8.34 -7 8 C-6.3125 6.0625 -6.3125 6.0625 -5 4 C-2.375 3.25 -2.375 3.25 0 3 C0 2.01 0 1.02 0 0 Z " fill="#162B43" transform="translate(26,18)"/>
<path d="M0 0 C1.98 0 3.96 0 6 0 C7.78257471 3.23091667 8 5.32518002 8 9 C4.7 9 1.4 9 -2 9 C-1.67 8.01 -1.34 7.02 -1 6 C-1.38932856 3.85744207 -1.38932856 3.85744207 -2 2 C-1.34 2 -0.68 2 0 2 C0 1.34 0 0.68 0 0 Z " fill="#F5F5F6" transform="translate(13,20)"/>
<path d="M0 0 C0.33 0.66 0.66 1.32 1 2 C1.66 2 2.32 2 3 2 C3.33 4.31 3.66 6.62 4 9 C3.195625 9.12375 2.39125 9.2475 1.5625 9.375 C0.716875 9.58125 -0.12875 9.7875 -1 10 C-1.33 10.66 -1.66 11.32 -2 12 C-2.66 12 -3.32 12 -4 12 C-5.49821059 8.62902617 -6 6.79557881 -6 3 C-4.68 3.33 -3.36 3.66 -2 4 C-1.34 2.68 -0.68 1.36 0 0 Z " fill="#EBECEE" transform="translate(8,12)"/>
<path d="M0 0 C0.33 0.99 0.66 1.98 1 3 C1.66 3 2.32 3 3 3 C3.625 4.8125 3.625 4.8125 4 7 C3.01 8.485 3.01 8.485 2 10 C0.68 9.67 -0.64 9.34 -2 9 C-1.77183594 9.61488281 -1.54367187 10.22976562 -1.30859375 10.86328125 C-1.02113281 11.67152344 -0.73367187 12.47976562 -0.4375 13.3125 C-0.14746094 14.11300781 0.14257812 14.91351563 0.44140625 15.73828125 C1 18 1 18 0 21 C-3.26131503 15.86307891 -4.56920331 12.05996062 -3.5625 5.98828125 C-2.86099863 3.50866877 -1.8202461 1.8202461 0 0 Z " fill="#091F38" transform="translate(4,6)"/>
<path d="M0 0 C0.66 1.32 1.32 2.64 2 4 C2.66 3.01 3.32 2.02 4 1 C3.51309271 7.45152159 3.51309271 7.45152159 1.1875 9.9375 C-1 11 -1 11 -5 11 C-5 10.34 -5 9.68 -5 9 C-5.66 8.67 -6.32 8.34 -7 8 C-6.3125 6.0625 -6.3125 6.0625 -5 4 C-2.375 3.25 -2.375 3.25 0 3 C0 2.01 0 1.02 0 0 Z " fill="#1B3149" transform="translate(26,18)"/>
<path d="M0 0 C2.48722141 0.34306502 3.79568171 0.81838374 5.6875 2.5 C7.59092877 6.12557861 8.15814828 9.91073734 8 14 C7.01 15.485 7.01 15.485 6 17 C5.67 15.02 5.34 13.04 5 11 C4.01 11 3.02 11 2 11 C0.9375 8.625 0.9375 8.625 0 6 C0.33 5.34 0.66 4.68 1 4 C1.66 4 2.32 4 3 4 C2.01 2.68 1.02 1.36 0 0 Z " fill="#0C223B" transform="translate(24,5)"/>
<path d="M0 0 C1.32 0.33 2.64 0.66 4 1 C4 3.64 4 6.28 4 9 C3.34 9 2.68 9 2 9 C0.50178941 5.62902617 0 3.79557881 0 0 Z " fill="#AFB6BE" transform="translate(2,15)"/>
<path d="M0 0 C0.66 0.33 1.32 0.66 2 1 C2 1.66 2 2.32 2 3 C-1.3 3 -4.6 3 -8 3 C-8 2.34 -8 1.68 -8 1 C-5.26094655 -0.36952673 -3.02912668 -0.12621361 0 0 Z " fill="#CFD3D7" transform="translate(19,26)"/>
<path d="M0 0 C0 0.66 0 1.32 0 2 C0.99 2.33 1.98 2.66 3 3 C-0.37097383 4.49821059 -2.20442119 5 -6 5 C-6 4.34 -6 3.68 -6 3 C-2.53846154 -0 -2.53846154 -0 0 0 Z " fill="#ACB3BB" transform="translate(12,3)"/>
<path d="M0 0 C0.93065133 2.60582371 1.14917407 3.64198224 0.0625 6.25 C-0.4634375 7.11625 -0.4634375 7.11625 -1 8 C-1.33 8 -1.66 8 -2 8 C-2 5.69 -2 3.38 -2 1 C-1.34 0.67 -0.68 0.34 0 0 Z " fill="#D3D7DB" transform="translate(29,15)"/>
</svg>
